<svg width="68" height="16" viewBox="0 0 68 16" fill="none" xmlns="http://www.w3.org/2000/svg">
<path d="M67.355 7.08H65.255L65.245 15H63.165L63.175 7.08H61.585V5H63.175L63.165 1.86H65.245L65.255 5H67.355V7.08Z" fill="#11C759"/>
<path d="M54.5555 15V5H56.6355V6.06C56.9821 5.64667 57.4088 5.32 57.9155 5.08C58.4221 4.84 58.9688 4.72 59.5555 4.72C59.9288 4.72 60.2988 4.77 60.6655 4.87L59.8355 6.97C59.5755 6.87 59.3155 6.82 59.0555 6.82C58.6155 6.82 58.2121 6.93 57.8455 7.15C57.4788 7.36333 57.1855 7.65333 56.9655 8.02C56.7455 8.38667 56.6355 8.79333 56.6355 9.24V15H54.5555Z" fill="#11C759"/>
<path d="M50.48 5H52.56V15H50.47L50.39 13.55C50.0967 14.0633 49.7 14.4767 49.2 14.79C48.7 15.1033 48.11 15.26 47.43 15.26C46.6967 15.26 46.0067 15.1233 45.36 14.85C44.7133 14.57 44.1433 14.1833 43.65 13.69C43.1633 13.1967 42.7833 12.63 42.51 11.99C42.2367 11.3433 42.1 10.65 42.1 9.91C42.1 9.19667 42.2333 8.52667 42.5 7.9C42.7667 7.26667 43.1367 6.71333 43.61 6.24C44.0833 5.76667 44.63 5.39667 45.25 5.13C45.8767 4.85667 46.5467 4.72 47.26 4.72C47.9867 4.72 48.6267 4.88667 49.18 5.22C49.74 5.54667 50.2033 5.96667 50.57 6.48L50.48 5ZM47.38 13.25C47.9667 13.25 48.48 13.1067 48.92 12.82C49.36 12.5267 49.7 12.1333 49.94 11.64C50.1867 11.1467 50.31 10.6 50.31 10C50.31 9.39333 50.1867 8.84333 49.94 8.35C49.6933 7.85667 49.35 7.46667 48.91 7.18C48.4767 6.88667 47.9667 6.74 47.38 6.74C46.8 6.74 46.27 6.88667 45.79 7.18C45.31 7.47333 44.93 7.86667 44.65 8.36C44.37 8.85333 44.23 9.4 44.23 10C44.23 10.6067 44.3733 11.1567 44.66 11.65C44.9533 12.1367 45.3367 12.5267 45.81 12.82C46.29 13.1067 46.8133 13.25 47.38 13.25Z" fill="#11C759"/>
<path d="M25.1219 15V5H27.2019V6.06C27.5486 5.64667 27.9719 5.32 28.4719 5.08C28.9786 4.84 29.5252 4.72 30.1119 4.72C30.8252 4.72 31.4819 4.89333 32.0819 5.24C32.6819 5.58 33.1586 6.03333 33.5119 6.6C33.8652 6.03333 34.3352 5.58 34.9219 5.24C35.5152 4.89333 36.1686 4.72 36.8819 4.72C37.6219 4.72 38.2952 4.9 38.9019 5.26C39.5086 5.62 39.9919 6.10333 40.3519 6.71C40.7119 7.31667 40.8919 7.99 40.8919 8.73V15H38.8119V9.26C38.8119 8.82 38.7052 8.41667 38.4919 8.05C38.2786 7.68333 37.9919 7.38667 37.6319 7.16C37.2719 6.93333 36.8719 6.82 36.4319 6.82C35.9919 6.82 35.5919 6.92667 35.2319 7.14C34.8719 7.35333 34.5852 7.64333 34.3719 8.01C34.1586 8.37667 34.0519 8.79333 34.0519 9.26V15H31.9719V9.26C31.9719 8.79333 31.8652 8.37667 31.6519 8.01C31.4386 7.64333 31.1486 7.35333 30.7819 7.14C30.4219 6.92667 30.0219 6.82 29.5819 6.82C29.1486 6.82 28.7486 6.93333 28.3819 7.16C28.0219 7.38667 27.7352 7.68333 27.5219 8.05C27.3086 8.41667 27.2019 8.82 27.2019 9.26V15H25.1219Z" fill="#11C759"/>
<path d="M19.4695 15.19C18.9429 15.1567 18.4295 15.05 17.9295 14.87C17.4295 14.69 16.9895 14.4467 16.6095 14.14C16.2362 13.8267 15.9562 13.46 15.7695 13.04L17.5395 12.28C17.6262 12.46 17.7762 12.6367 17.9895 12.81C18.2095 12.9833 18.4662 13.1267 18.7595 13.24C19.0529 13.3467 19.3595 13.4 19.6795 13.4C19.9929 13.4 20.2829 13.3567 20.5495 13.27C20.8229 13.1767 21.0462 13.0367 21.2195 12.85C21.3929 12.6633 21.4795 12.44 21.4795 12.18C21.4795 11.8867 21.3795 11.66 21.1795 11.5C20.9862 11.3333 20.7429 11.2067 20.4495 11.12C20.1562 11.0333 19.8629 10.95 19.5695 10.87C18.9162 10.7233 18.3162 10.5233 17.7695 10.27C17.2295 10.01 16.7995 9.68 16.4795 9.28C16.1595 8.87333 15.9995 8.37667 15.9995 7.79C15.9995 7.15 16.1729 6.59667 16.5195 6.13C16.8662 5.65667 17.3195 5.29333 17.8795 5.04C18.4462 4.78667 19.0495 4.66 19.6895 4.66C20.4895 4.66 21.2229 4.83 21.8895 5.17C22.5562 5.51 23.0662 5.97667 23.4195 6.57L21.7695 7.55C21.6695 7.35 21.5195 7.17 21.3195 7.01C21.1195 6.85 20.8929 6.72333 20.6395 6.63C20.3862 6.53 20.1229 6.47333 19.8495 6.46C19.5095 6.44667 19.1929 6.48667 18.8995 6.58C18.6129 6.66667 18.3829 6.80667 18.2095 7C18.0362 7.19333 17.9495 7.44 17.9495 7.74C17.9495 8.03333 18.0529 8.25333 18.2595 8.4C18.4662 8.54 18.7262 8.65333 19.0395 8.74C19.3595 8.82667 19.6862 8.92333 20.0195 9.03C20.6129 9.21667 21.1695 9.44667 21.6895 9.72C22.2095 9.98667 22.6295 10.3167 22.9495 10.71C23.2695 11.1033 23.4229 11.5833 23.4095 12.15C23.4095 12.7767 23.2195 13.3267 22.8395 13.8C22.4662 14.2733 21.9795 14.6333 21.3795 14.88C20.7795 15.1267 20.1429 15.23 19.4695 15.19Z" fill="#11C759"/>
<path d="M12.9603 15.26C12.6537 15.26 12.3937 15.1533 12.1803 14.94C11.9737 14.7267 11.8703 14.4667 11.8703 14.16C11.8703 13.86 11.9737 13.6033 12.1803 13.39C12.3937 13.1767 12.6537 13.07 12.9603 13.07C13.267 13.07 13.527 13.1767 13.7403 13.39C13.9537 13.6033 14.0603 13.86 14.0603 14.16C14.0603 14.4667 13.9537 14.7267 13.7403 14.94C13.527 15.1533 13.267 15.26 12.9603 15.26Z" fill="#ED5E00"/>
<path d="M5.40001 4.72C6.37335 4.72 7.25668 4.95667 8.05001 5.43C8.85001 5.90333 9.48668 6.54 9.96001 7.34C10.4333 8.13333 10.67 9.01667 10.67 9.99C10.67 10.7167 10.5333 11.4 10.26 12.04C9.98668 12.6733 9.60668 13.2333 9.12001 13.72C8.64001 14.2 8.08001 14.5767 7.44001 14.85C6.80668 15.1233 6.12668 15.26 5.40001 15.26C4.70001 15.26 4.08668 15.1 3.56001 14.78C3.04001 14.4533 2.61335 14.0367 2.28001 13.53V15H0.200012V-1.90735e-06H2.28001V6.45C2.61335 5.93667 3.04001 5.52 3.56001 5.2C4.08668 4.88 4.70001 4.72 5.40001 4.72ZM5.38001 13.24C5.96001 13.24 6.49001 13.0933 6.97001 12.8C7.45001 12.5067 7.83001 12.1133 8.11001 11.62C8.39668 11.1267 8.54001 10.5833 8.54001 9.99C8.54001 9.38333 8.39668 8.83333 8.11001 8.34C7.82335 7.84667 7.44001 7.45667 6.96001 7.17C6.48001 6.87667 5.95335 6.73 5.38001 6.73C4.80001 6.73 4.29001 6.87667 3.85001 7.17C3.41001 7.46333 3.06668 7.85667 2.82001 8.35C2.57335 8.84333 2.45001 9.39 2.45001 9.99C2.45001 10.59 2.57335 11.1367 2.82001 11.63C3.06668 12.1233 3.41001 12.5167 3.85001 12.81C4.29001 13.0967 4.80001 13.24 5.38001 13.24Z" fill="#11C759"/>
</svg>
